<svg width="426" height="108" viewBox="0 0 426 108" fill="none" xmlns="http://www.w3.org/2000/svg">
<path d="M64.3095 74.128H30.7735L25.3975 90H2.4855L34.9975 0.143997H60.3415L92.8535 90H69.6855L64.3095 74.128ZM58.6775 57.232L47.5415 24.336L36.5335 57.232H58.6775ZM124.637 0.143997V90H102.749V0.143997H124.637Z" fill="#F5F5F5"/>
<path d="M148.225 59.344C149.249 57.68 150.721 56.336 152.641 55.312C154.561 54.288 156.758 53.776 159.233 53.776C162.177 53.776 164.843 54.5227 167.233 56.016C169.622 57.5093 171.499 59.6427 172.865 62.416C174.273 65.1893 174.977 68.4107 174.977 72.08C174.977 75.7493 174.273 78.992 172.865 81.808C171.499 84.5813 169.622 86.736 167.233 88.272C164.843 89.7653 162.177 90.512 159.233 90.512C156.715 90.512 154.518 90.0213 152.641 89.04C150.763 88.016 149.291 86.672 148.225 85.008V90H137.281V42.64H148.225V59.344ZM163.841 72.08C163.841 69.3493 163.073 67.216 161.537 65.68C160.043 64.1013 158.187 63.312 155.969 63.312C153.793 63.312 151.937 64.1013 150.401 65.68C148.907 67.2587 148.161 69.4133 148.161 72.144C148.161 74.8747 148.907 77.0293 150.401 78.608C151.937 80.1867 153.793 80.976 155.969 80.976C158.145 80.976 160.001 80.1867 161.537 78.608C163.073 76.9867 163.841 74.8107 163.841 72.08ZM191.662 42.64V90H180.718V42.64H191.662ZM215.849 90.512C212.35 90.512 209.193 89.7653 206.377 88.272C203.604 86.7787 201.406 84.6453 199.785 81.872C198.206 79.0987 197.417 75.856 197.417 72.144C197.417 68.4747 198.228 65.2533 199.849 62.48C201.47 59.664 203.689 57.5093 206.505 56.016C209.321 54.5227 212.478 53.776 215.977 53.776C219.476 53.776 222.633 54.5227 225.449 56.016C228.265 57.5093 230.484 59.664 232.105 62.48C233.726 65.2533 234.537 68.4747 234.537 72.144C234.537 75.8133 233.705 79.056 232.041 81.872C230.42 84.6453 228.18 86.7787 225.321 88.272C222.505 89.7653 219.348 90.512 215.849 90.512ZM215.849 81.04C217.94 81.04 219.71 80.272 221.161 78.736C222.654 77.2 223.401 75.0027 223.401 72.144C223.401 69.2853 222.676 67.088 221.225 65.552C219.817 64.016 218.068 63.248 215.977 63.248C213.844 63.248 212.073 64.016 210.665 65.552C209.257 67.0453 208.553 69.2427 208.553 72.144C208.553 75.0027 209.236 77.2 210.601 78.736C212.009 80.272 213.758 81.04 215.849 81.04ZM253.911 53.776C256.428 53.776 258.626 54.288 260.503 55.312C262.423 56.336 263.895 57.68 264.919 59.344V54.288H275.863V89.936C275.863 93.2213 275.202 96.1867 273.879 98.832C272.599 101.52 270.615 103.653 267.927 105.232C265.282 106.811 261.975 107.6 258.007 107.6C252.716 107.6 248.428 106.341 245.143 103.824C241.858 101.349 239.98 97.9787 239.511 93.712H250.327C250.668 95.0773 251.479 96.144 252.759 96.912C254.039 97.7227 255.618 98.128 257.495 98.128C259.756 98.128 261.548 97.4667 262.871 96.144C264.236 94.864 264.919 92.7947 264.919 89.936V84.88C263.852 86.544 262.38 87.9093 260.503 88.976C258.626 90 256.428 90.512 253.911 90.512C250.967 90.512 248.3 89.7653 245.911 88.272C243.522 86.736 241.623 84.5813 240.215 81.808C238.85 78.992 238.167 75.7493 238.167 72.08C238.167 68.4107 238.85 65.1893 240.215 62.416C241.623 59.6427 243.522 57.5093 245.911 56.016C248.3 54.5227 250.967 53.776 253.911 53.776ZM264.919 72.144C264.919 69.4133 264.151 67.2587 262.615 65.68C261.122 64.1013 259.287 63.312 257.111 63.312C254.935 63.312 253.079 64.1013 251.543 65.68C250.05 67.216 249.303 69.3493 249.303 72.08C249.303 74.8107 250.05 76.9867 251.543 78.608C253.079 80.1867 254.935 80.976 257.111 80.976C259.287 80.976 261.122 80.1867 262.615 78.608C264.151 77.0293 264.919 74.8747 264.919 72.144ZM294.725 59.344C295.791 57.68 297.263 56.336 299.141 55.312C301.018 54.288 303.215 53.776 305.733 53.776C308.677 53.776 311.343 54.5227 313.733 56.016C316.122 57.5093 317.999 59.6427 319.365 62.416C320.773 65.1893 321.477 68.4107 321.477 72.08C321.477 75.7493 320.773 78.992 319.365 81.808C317.999 84.5813 316.122 86.736 313.733 88.272C311.343 89.7653 308.677 90.512 305.733 90.512C303.258 90.512 301.061 90 299.141 88.976C297.263 87.952 295.791 86.6293 294.725 85.008V107.024H283.781V54.288H294.725V59.344ZM310.341 72.08C310.341 69.3493 309.573 67.216 308.037 65.68C306.543 64.1013 304.687 63.312 302.469 63.312C300.293 63.312 298.437 64.1013 296.901 65.68C295.407 67.2587 294.661 69.4133 294.661 72.144C294.661 74.8747 295.407 77.0293 296.901 78.608C298.437 80.1867 300.293 80.976 302.469 80.976C304.645 80.976 306.501 80.1867 308.037 78.608C309.573 76.9867 310.341 74.8107 310.341 72.08ZM343.474 90.512C339.975 90.512 336.818 89.7653 334.002 88.272C331.229 86.7787 329.031 84.6453 327.41 81.872C325.831 79.0987 325.042 75.856 325.042 72.144C325.042 68.4747 325.853 65.2533 327.474 62.48C329.095 59.664 331.314 57.5093 334.13 56.016C336.946 54.5227 340.103 53.776 343.602 53.776C347.101 53.776 350.258 54.5227 353.074 56.016C355.89 57.5093 358.109 59.664 359.73 62.48C361.351 65.2533 362.162 68.4747 362.162 72.144C362.162 75.8133 361.33 79.056 359.666 81.872C358.045 84.6453 355.805 86.7787 352.946 88.272C350.13 89.7653 346.973 90.512 343.474 90.512ZM343.474 81.04C345.565 81.04 347.335 80.272 348.786 78.736C350.279 77.2 351.026 75.0027 351.026 72.144C351.026 69.2853 350.301 67.088 348.85 65.552C347.442 64.016 345.693 63.248 343.602 63.248C341.469 63.248 339.698 64.016 338.29 65.552C336.882 67.0453 336.178 69.2427 336.178 72.144C336.178 75.0027 336.861 77.2 338.226 78.736C339.634 80.272 341.383 81.04 343.474 81.04ZM382.496 90.512C379.381 90.512 376.608 89.9787 374.176 88.912C371.744 87.8453 369.824 86.3947 368.416 84.56C367.008 82.6827 366.219 80.592 366.048 78.288H376.864C376.992 79.5253 377.568 80.528 378.592 81.296C379.616 82.064 380.875 82.448 382.368 82.448C383.733 82.448 384.779 82.192 385.504 81.68C386.272 81.1253 386.656 80.4213 386.656 79.568C386.656 78.544 386.123 77.7973 385.056 77.328C383.989 76.816 382.261 76.2613 379.872 75.664C377.312 75.0667 375.179 74.448 373.472 73.808C371.765 73.1253 370.293 72.08 369.056 70.672C367.819 69.2213 367.2 67.28 367.2 64.848C367.2 62.8 367.755 60.944 368.864 59.28C370.016 57.5733 371.68 56.2293 373.856 55.248C376.075 54.2667 378.699 53.776 381.728 53.776C386.208 53.776 389.728 54.8853 392.288 57.104C394.891 59.3227 396.384 62.2667 396.768 65.936H386.656C386.485 64.6987 385.931 63.7173 384.992 62.992C384.096 62.2667 382.901 61.904 381.408 61.904C380.128 61.904 379.147 62.16 378.464 62.672C377.781 63.1413 377.44 63.8027 377.44 64.656C377.44 65.68 377.973 66.448 379.04 66.96C380.149 67.472 381.856 67.984 384.16 68.496C386.805 69.1787 388.96 69.8613 390.624 70.544C392.288 71.184 393.739 72.2507 394.976 73.744C396.256 75.1947 396.917 77.1573 396.96 79.632C396.96 81.7227 396.363 83.6 395.168 85.264C394.016 86.8853 392.331 88.1653 390.112 89.104C387.936 90.0427 385.397 90.512 382.496 90.512ZM423.56 80.72V90H417.992C414.024 90 410.93 89.04 408.712 87.12C406.493 85.1573 405.384 81.9787 405.384 77.584V63.376H401.032V54.288H405.384V45.584H416.328V54.288H423.496V63.376H416.328V77.712C416.328 78.7787 416.584 79.5467 417.096 80.016C417.608 80.4853 418.461 80.72 419.656 80.72H423.56Z" fill="#FF0000"/>
</svg>
