<svg width="400" height="220" viewBox="0 0 400 220" fill="none" xmlns="http://www.w3.org/2000/svg">
<path fill-rule="evenodd" clip-rule="evenodd" d="M251.594 196.525C264.69 189.283 275.992 179.184 284.636 167.015C289.54 168.31 294.689 169 300 169C321.793 169 340.873 157.381 351.382 140H320V109H360H400C400 164.228 355.228 209 300 209C282.44 209 265.937 204.474 251.594 196.525Z" fill="#FF0000"/>
<path fill-rule="evenodd" clip-rule="evenodd" d="M284.636 50.9851C289.54 49.69 294.689 49 300 49C322.228 49 341.632 61.0869 352 79.0466H395.437C382.708 38.4515 344.794 9 300 9C282.44 9 265.937 13.5261 251.594 21.4754C264.69 28.7171 275.992 38.8164 284.636 50.9851Z" fill="#FF0000"/>
<path fill-rule="evenodd" clip-rule="evenodd" d="M218.498 51.0424C231.892 54.6469 243.471 62.8008 251.459 73.726C244.252 83.6267 240 95.8168 240 109C240 122.183 244.252 134.373 251.459 144.274C243.471 155.199 231.892 163.353 218.498 166.958C206.851 150.608 200 130.604 200 109C200 87.3961 206.851 67.3922 218.498 51.0424Z" fill="#FF0000"/>
<g filter="url(#filter0_d_504_315)">
<path fill-rule="evenodd" clip-rule="evenodd" d="M10 209L120 9H203C220.605 9 237.186 13.5083 251.594 21.4754C264.69 28.7171 275.992 38.8164 284.636 50.9851C296.192 67.2527 303 87.2186 303 109C303 130.781 296.192 150.747 284.636 167.015C275.992 179.184 264.69 189.283 251.594 196.525C237.186 204.492 220.605 209 203 209H198V169H203C208.354 169 213.55 168.289 218.498 166.958C231.892 163.353 243.471 155.199 251.459 144.274C258.709 134.356 263 122.155 263 109C263 95.8451 258.709 83.6437 251.459 73.726C243.471 62.8008 231.892 54.6469 218.498 51.0424C213.55 49.7107 208.354 49 203 49H160V209H120V79L50 209H10Z" fill="#FF0000"/>
</g>
<defs>
<filter id="filter0_d_504_315" x="0" y="0" width="313" height="220" filterUnits="userSpaceOnUse" color-interpolation-filters="sRGB">
<feFlood flood-opacity="0" result="BackgroundImageFix"/>
<feColorMatrix in="SourceAlpha" type="matrix" values="0 0 0 0 0 0 0 0 0 0 0 0 0 0 0 0 0 0 127 0" result="hardAlpha"/>
<feOffset dy="1"/>
<feGaussianBlur stdDeviation="5"/>
<feComposite in2="hardAlpha" operator="out"/>
<feColorMatrix type="matrix" values="0 0 0 0 0 0 0 0 0 0 0 0 0 0 0 0 0 0 0.25 0"/>
<feBlend mode="normal" in2="BackgroundImageFix" result="effect1_dropShadow_504_315"/>
<feBlend mode="normal" in="SourceGraphic" in2="effect1_dropShadow_504_315" result="shape"/>
</filter>
</defs>
</svg>
