<svg width="288" height="250" viewBox="0 0 288 250" fill="none" xmlns="http://www.w3.org/2000/svg">
<path d="M35.8456 71.6912H37.0895C56.8864 71.6912 72.9351 55.6426 72.9351 35.8456C72.9351 16.0486 88.9837 0 108.781 0H213.287C223.996 0 234.258 4.29454 241.776 11.9222L276.489 47.1441C283.865 54.6281 288 64.714 288 75.2219V89.4675C288 109.092 272.092 125 252.468 125H238.592C226.631 125 216.935 115.304 216.935 103.343C216.935 97.2339 214.355 91.409 209.831 87.3039L203.945 81.9637C196.659 75.3531 187.174 71.6912 177.336 71.6912H81.1454C79.7095 71.6912 78.5455 72.8552 78.5455 74.2911C78.5455 74.9804 78.8192 75.6415 79.3065 76.1291L171.556 168.424C179.058 175.93 189.235 180.147 199.847 180.147H253.074C272.363 180.147 288 195.784 288 215.074C288 234.363 272.363 250 253.074 250H160.367C149.878 250 139.808 245.88 132.327 238.526L72.9351 180.147L42.8906 150.615C38.1749 145.98 31.8272 143.382 25.2149 143.382C11.2891 143.382 0 132.093 0 118.167V107.537C0 87.7398 16.0486 71.6912 35.8456 71.6912Z" fill="#FFD149"/>
</svg>
