<svg width="356" height="82" viewBox="0 0 356 82" fill="none" xmlns="http://www.w3.org/2000/svg">
<g filter="url(#filter0_d_570_71)">
<path d="M104.268 68.3889C106.679 69.6236 108.956 70.6231 111.216 71.3606H105.487L104.268 68.3889ZM91.3506 2.10669L99.7501 21.054C99.6628 23.6203 99.9373 26.1914 100.635 28.5872C101.71 32.2798 103.812 35.5989 107.157 37.7659L114.187 53.6204C111.767 52.5114 109.845 51.17 108.914 50.2336H108.915L108.304 49.6174L107.882 49.1917L107.538 49.6829L107.041 50.3958L100.642 59.5579L100.424 59.0247L100.297 58.7151H65.1876L65.0606 59.0247L59.9991 71.3606H43.6358L52.6407 51.1731C55.9815 49.8024 59.6719 46.8795 62.4854 42.7014C66.1213 37.3013 68.3881 29.6975 66.6846 20.2649V20.2639L66.6104 19.8577L74.5333 2.10669H91.3506ZM82.4307 17.1702L70.9503 44.8713L70.6641 45.5627H94.9151L94.6348 44.8743L83.3555 17.1731L82.8965 16.0461L82.4307 17.1702Z" fill="url(#paint0_linear_570_71)" stroke="#88CB0C"/>
</g>
<g filter="url(#filter1_d_570_71)">
<path d="M320.33 2.10669L351.031 71.3606H334.467L329.404 59.0247L329.277 58.7151H294.168L294.041 59.0247L288.976 71.3606H272.616L274.13 67.9631C281.336 62.5608 285.508 57.6386 287.824 52.0198L288.043 51.4709C290.265 45.7308 290.563 39.3685 290.463 31.3528L303.513 2.10669H320.33ZM287.982 36.9143C287.844 42.2541 287.29 46.6078 285.752 50.5764C284.087 54.8745 281.23 58.8057 276.324 63.0452L287.982 36.9143ZM311.411 17.1702L299.931 44.8713L299.645 45.5627H323.895L323.615 44.8743L312.335 17.1731L311.876 16.0461L311.411 17.1702Z" fill="url(#paint1_linear_570_71)" stroke="#88CB0C"/>
</g>
<g filter="url(#filter2_d_570_71)">
<path d="M198.351 2.10669L221.79 54.9817V71.3606H212.487L207.424 59.0247L207.297 58.7151H172.188L172.061 59.0247L166.999 71.3606H150.635L151.311 69.8411C156.474 66.2867 159.469 62.2517 160.915 58.0149C162.199 54.2511 162.228 50.4255 161.595 46.7922L181.533 2.10669H198.351ZM189.431 17.1702L177.95 44.8713L177.664 45.5627H201.915L201.635 44.8743L190.355 17.1731L189.896 16.0461L189.431 17.1702Z" fill="url(#paint2_linear_570_71)" stroke="#88CB0C"/>
</g>
<g filter="url(#filter3_d_570_71)">
<path d="M130.541 0.5C135.35 0.5 140.026 1.19553 144.57 2.58594H144.572C149.01 3.92483 152.919 5.78462 156.307 8.15723L149.171 18.8711C143.743 15.1929 137.762 13.3506 131.24 13.3506C127.133 13.3506 123.78 14.0261 121.219 15.418L121.214 15.4209C118.699 16.8258 117.365 18.781 117.365 21.2773C117.365 23.68 118.506 25.5421 120.707 26.8271L120.713 26.8311C122.933 28.0864 126.543 28.9979 131.479 29.6016L131.484 29.6025C140.891 30.6683 147.838 33.0261 152.391 36.623V36.624L152.395 36.626C156.92 40.1361 159.189 44.9698 159.189 51.1855C159.189 55.5003 157.989 59.31 155.593 62.6318C153.193 65.8933 149.809 68.4506 145.42 70.2949C141.034 72.0713 135.978 72.9658 130.242 72.9658C124.571 72.9658 119.101 72.1046 113.828 70.3818H113.829C108.788 68.7137 104.408 66.3944 100.679 63.4326L108.588 52.3008C114.777 57.0429 121.968 59.4131 130.143 59.4131C134.317 59.413 137.676 58.7031 140.177 57.2363C142.759 55.7612 144.117 53.7064 144.117 51.085C144.117 48.6007 142.862 46.6748 140.469 45.3301C138.116 44.0078 134.439 43.0957 129.497 42.5586H129.496C120.016 41.4917 113.137 39.265 108.785 35.9346C104.536 32.6314 102.394 27.9041 102.394 21.6787C102.394 17.4966 103.561 13.8208 105.891 10.6328C108.225 7.43872 111.507 4.9478 115.762 3.1709C120.015 1.39468 124.938 0.500044 130.541 0.5Z" fill="url(#paint3_linear_570_71)" stroke="#88CB0C"/>
</g>
<g filter="url(#filter4_d_570_71)">
<path d="M252.185 2.10583C259.304 2.10583 265.51 3.53054 270.816 6.36267L270.818 6.36365C276.188 9.19531 280.308 13.2401 283.189 18.5052V18.5062L283.193 18.5131C286.138 23.7125 287.619 29.7803 287.619 36.7328C287.619 43.6853 286.139 49.7882 283.192 55.056L283.191 55.058C280.311 60.2568 276.19 64.2702 270.818 67.1029L270.816 67.1039C265.51 69.936 259.304 71.3607 252.185 71.3607H224.037V2.10583H252.185ZM239.407 58.0082H252.185C258.158 58.0082 263.02 56.092 266.72 52.2338C270.422 48.3738 272.249 43.1875 272.249 36.7328C272.249 32.719 271.506 29.1886 270.004 26.1556L269.693 25.556C268.055 22.3348 265.696 19.8574 262.621 18.1371H262.622C259.607 16.3457 256.122 15.4574 252.185 15.4574H239.407V58.0082Z" fill="url(#paint4_linear_570_71)" stroke="#88CB0C"/>
</g>
<g filter="url(#filter5_d_570_71)">
<path d="M37.4395 2.10583C42.765 2.10588 47.3745 3.13002 51.2832 5.16052L51.292 5.16541C55.2653 7.13018 58.3178 9.97314 60.4629 13.6986C62.6087 17.4254 63.6904 21.786 63.6904 26.7972C63.6904 31.8085 62.6088 36.1691 60.4629 39.8959C58.451 43.3899 55.6405 46.137 52.0205 48.141L51.2891 48.5306C47.379 50.4963 42.7674 51.4886 37.4395 51.4886H19.8701V71.3607H4.5V2.10583H37.4395ZM19.7705 38.1361H36.6406C40.1944 38.1361 43.0574 37.1381 45.168 35.0902C47.3474 33.0403 48.4198 30.2904 48.4199 26.8978C48.4199 23.5051 47.3474 20.7545 45.168 18.7045C43.0574 16.6567 40.1943 15.6586 36.6406 15.6586H19.7705V38.1361Z" fill="url(#paint5_linear_570_71)" stroke="#88CB0C"/>
</g>
<defs>
<filter id="filter0_d_570_71" x="38.8653" y="1.60669" width="80.2946" height="78.2537" filterUnits="userSpaceOnUse" color-interpolation-filters="sRGB">
<feFlood flood-opacity="0" result="BackgroundImageFix"/>
<feColorMatrix in="SourceAlpha" type="matrix" values="0 0 0 0 0 0 0 0 0 0 0 0 0 0 0 0 0 0 127 0" result="hardAlpha"/>
<feOffset dy="4"/>
<feGaussianBlur stdDeviation="2"/>
<feComposite in2="hardAlpha" operator="out"/>
<feColorMatrix type="matrix" values="0 0 0 0 0 0 0 0 0 0 0 0 0 0 0 0 0 0 0.38 0"/>
<feBlend mode="normal" in2="BackgroundImageFix" result="effect1_dropShadow_570_71"/>
<feBlend mode="normal" in="SourceGraphic" in2="effect1_dropShadow_570_71" result="shape"/>
</filter>
<filter id="filter1_d_570_71" x="267.845" y="1.60669" width="87.9543" height="78.2537" filterUnits="userSpaceOnUse" color-interpolation-filters="sRGB">
<feFlood flood-opacity="0" result="BackgroundImageFix"/>
<feColorMatrix in="SourceAlpha" type="matrix" values="0 0 0 0 0 0 0 0 0 0 0 0 0 0 0 0 0 0 127 0" result="hardAlpha"/>
<feOffset dy="4"/>
<feGaussianBlur stdDeviation="2"/>
<feComposite in2="hardAlpha" operator="out"/>
<feColorMatrix type="matrix" values="0 0 0 0 0 0 0 0 0 0 0 0 0 0 0 0 0 0 0.38 0"/>
<feBlend mode="normal" in2="BackgroundImageFix" result="effect1_dropShadow_570_71"/>
<feBlend mode="normal" in="SourceGraphic" in2="effect1_dropShadow_570_71" result="shape"/>
</filter>
<filter id="filter2_d_570_71" x="145.865" y="1.60669" width="80.4243" height="78.2537" filterUnits="userSpaceOnUse" color-interpolation-filters="sRGB">
<feFlood flood-opacity="0" result="BackgroundImageFix"/>
<feColorMatrix in="SourceAlpha" type="matrix" values="0 0 0 0 0 0 0 0 0 0 0 0 0 0 0 0 0 0 127 0" result="hardAlpha"/>
<feOffset dy="4"/>
<feGaussianBlur stdDeviation="2"/>
<feComposite in2="hardAlpha" operator="out"/>
<feColorMatrix type="matrix" values="0 0 0 0 0 0 0 0 0 0 0 0 0 0 0 0 0 0 0.38 0"/>
<feBlend mode="normal" in2="BackgroundImageFix" result="effect1_dropShadow_570_71"/>
<feBlend mode="normal" in="SourceGraphic" in2="effect1_dropShadow_570_71" result="shape"/>
</filter>
<filter id="filter3_d_570_71" x="95.9973" y="0" width="67.6913" height="81.4662" filterUnits="userSpaceOnUse" color-interpolation-filters="sRGB">
<feFlood flood-opacity="0" result="BackgroundImageFix"/>
<feColorMatrix in="SourceAlpha" type="matrix" values="0 0 0 0 0 0 0 0 0 0 0 0 0 0 0 0 0 0 127 0" result="hardAlpha"/>
<feOffset dy="4"/>
<feGaussianBlur stdDeviation="2"/>
<feComposite in2="hardAlpha" operator="out"/>
<feColorMatrix type="matrix" values="0 0 0 0 0 0 0 0 0 0 0 0 0 0 0 0 0 0 0.38 0"/>
<feBlend mode="normal" in2="BackgroundImageFix" result="effect1_dropShadow_570_71"/>
<feBlend mode="normal" in="SourceGraphic" in2="effect1_dropShadow_570_71" result="shape"/>
</filter>
<filter id="filter4_d_570_71" x="219.537" y="1.60583" width="72.5824" height="78.2545" filterUnits="userSpaceOnUse" color-interpolation-filters="sRGB">
<feFlood flood-opacity="0" result="BackgroundImageFix"/>
<feColorMatrix in="SourceAlpha" type="matrix" values="0 0 0 0 0 0 0 0 0 0 0 0 0 0 0 0 0 0 127 0" result="hardAlpha"/>
<feOffset dy="4"/>
<feGaussianBlur stdDeviation="2"/>
<feComposite in2="hardAlpha" operator="out"/>
<feColorMatrix type="matrix" values="0 0 0 0 0 0 0 0 0 0 0 0 0 0 0 0 0 0 0.38 0"/>
<feBlend mode="normal" in2="BackgroundImageFix" result="effect1_dropShadow_570_71"/>
<feBlend mode="normal" in="SourceGraphic" in2="effect1_dropShadow_570_71" result="shape"/>
</filter>
<filter id="filter5_d_570_71" x="0" y="1.60583" width="68.1904" height="78.2545" filterUnits="userSpaceOnUse" color-interpolation-filters="sRGB">
<feFlood flood-opacity="0" result="BackgroundImageFix"/>
<feColorMatrix in="SourceAlpha" type="matrix" values="0 0 0 0 0 0 0 0 0 0 0 0 0 0 0 0 0 0 127 0" result="hardAlpha"/>
<feOffset dy="4"/>
<feGaussianBlur stdDeviation="2"/>
<feComposite in2="hardAlpha" operator="out"/>
<feColorMatrix type="matrix" values="0 0 0 0 0 0 0 0 0 0 0 0 0 0 0 0 0 0 0.38 0"/>
<feBlend mode="normal" in2="BackgroundImageFix" result="effect1_dropShadow_570_71"/>
<feBlend mode="normal" in="SourceGraphic" in2="effect1_dropShadow_570_71" result="shape"/>
</filter>
<linearGradient id="paint0_linear_570_71" x1="79.0126" y1="1.60669" x2="79.0126" y2="71.8604" gradientUnits="userSpaceOnUse">
<stop stop-color="#00CC58"/>
<stop offset="0.62" stop-color="#88CB0C"/>
</linearGradient>
<linearGradient id="paint1_linear_570_71" x1="311.822" y1="1.60669" x2="311.822" y2="71.8604" gradientUnits="userSpaceOnUse">
<stop stop-color="#00CC58"/>
<stop offset="0.62" stop-color="#88CB0C"/>
</linearGradient>
<linearGradient id="paint2_linear_570_71" x1="186.077" y1="1.60669" x2="186.077" y2="71.8604" gradientUnits="userSpaceOnUse">
<stop stop-color="#00CC58"/>
<stop offset="0.62" stop-color="#88CB0C"/>
</linearGradient>
<linearGradient id="paint3_linear_570_71" x1="129.843" y1="0" x2="129.843" y2="73.4662" gradientUnits="userSpaceOnUse">
<stop stop-color="#00CC58"/>
<stop offset="0.62" stop-color="#88CB0C"/>
</linearGradient>
<linearGradient id="paint4_linear_570_71" x1="255.828" y1="1.60583" x2="255.828" y2="71.8604" gradientUnits="userSpaceOnUse">
<stop stop-color="#00CC58"/>
<stop offset="0.62" stop-color="#88CB0C"/>
</linearGradient>
<linearGradient id="paint5_linear_570_71" x1="34.0952" y1="1.60583" x2="34.0952" y2="71.8604" gradientUnits="userSpaceOnUse">
<stop stop-color="#00CC58"/>
<stop offset="0.62" stop-color="#88CB0C"/>
</linearGradient>
</defs>
</svg>
