<svg width="356" height="82" viewBox="0 0 356 82" fill="none" xmlns="http://www.w3.org/2000/svg">
<g filter="url(#filter0_d_209_23)">
<path d="M100.254 20.9558C100.156 23.5148 100.424 26.0735 101.115 28.4475C102.178 32.097 104.257 35.3414 107.555 37.4277L115.16 54.5818C112.155 53.3839 109.694 51.7277 108.56 50.5858L107.948 49.9692L107.451 50.6818L100.528 60.5952L99.9613 59.2148H65.523L60.3343 71.8604H42.8653L52.2659 50.7859C55.5514 49.4912 59.2525 46.607 62.0705 42.4223C65.6359 37.1271 67.8729 29.6546 66.193 20.3534L66.0915 19.7959L74.2086 1.60669H91.6758L100.254 20.9558ZM103.286 67.3131C107.512 69.5688 111.253 71.12 115.117 71.8604H105.152L103.286 67.3131ZM71.4123 45.0625H94.1714L82.8924 17.3619L71.4123 45.0625Z" fill="url(#paint0_linear_209_23)"/>
</g>
<g filter="url(#filter1_d_209_23)">
<path d="M351.799 71.8604H334.132L328.941 59.2148H294.504L289.311 71.8604H271.845L273.725 67.6439C281.186 62.068 285.343 57.0497 287.577 51.2903C289.771 45.6228 290.066 39.3162 289.962 31.251L303.188 1.60669H320.656L351.799 71.8604ZM288.519 34.4854C288.488 40.9777 288.018 46.1148 286.219 50.7573C284.335 55.6201 280.966 59.9962 274.991 64.8078L288.519 34.4854ZM300.393 45.0625H323.152L311.872 17.3619L300.393 45.0625Z" fill="url(#paint1_linear_209_23)"/>
</g>
<g filter="url(#filter2_d_209_23)">
<path d="M222.29 54.8739V71.8604H212.152L206.961 59.2148H172.523L167.334 71.8604H149.865L150.911 69.5102C156.072 65.9875 159.025 62.0049 160.442 57.853C161.71 54.1358 161.728 50.3447 161.077 46.7266L181.209 1.60669H198.675L222.29 54.8739ZM178.412 45.0625H201.171L189.892 17.3619L178.412 45.0625Z" fill="url(#paint2_linear_209_23)"/>
</g>
<g filter="url(#filter3_d_209_23)">
<path d="M130.242 73.4662C124.519 73.4662 118.996 72.5964 113.672 70.8567C108.415 69.1171 103.857 66.6749 99.9973 63.5302L108.482 51.5869C114.671 56.4713 121.891 58.9135 130.142 58.9135C134.268 58.9135 137.529 58.2109 139.925 56.8058C142.387 55.4007 143.618 53.4938 143.618 51.0851C143.618 48.8102 142.487 47.0371 140.224 45.7658C137.962 44.4945 134.368 43.5913 129.444 43.056C119.928 41.9855 112.94 39.744 108.482 36.3316C104.09 32.9193 101.894 28.0349 101.894 21.6785C101.894 17.3964 103.092 13.616 105.487 10.3375C107.883 7.05891 111.243 4.51637 115.569 2.70982C119.894 0.903274 124.885 0 130.542 0C135.399 0 140.124 0.702546 144.716 2.10764C149.374 3.51273 153.467 5.48655 156.993 8.02909L149.307 19.5709C143.851 15.7571 137.828 13.8502 131.24 13.8502C127.181 13.8502 123.92 14.5193 121.458 15.8575C119.063 17.1956 117.865 19.0022 117.865 21.2771C117.865 23.4851 118.896 25.1913 120.959 26.3956C123.089 27.6 126.615 28.5033 131.54 29.1055C140.989 30.176 148.043 32.5513 152.701 36.2313C157.36 39.8444 159.689 44.8291 159.689 51.1855C159.689 55.6015 158.458 59.5156 155.995 62.928C153.533 66.2735 150.073 68.8829 145.614 70.7564C141.156 72.5629 136.032 73.4662 130.242 73.4662Z" fill="url(#paint3_linear_209_23)"/>
</g>
<g filter="url(#filter4_d_209_23)">
<path d="M252.185 1.60583C259.372 1.60583 265.661 3.04438 271.051 5.92147C276.507 8.79856 280.7 12.9135 283.628 18.2662C286.622 23.552 288.12 29.7077 288.12 36.7331C288.12 43.7586 286.622 49.9477 283.628 55.3004C280.7 60.5862 276.507 64.6677 271.051 67.5447C265.661 70.4218 259.372 71.8604 252.185 71.8604H223.537V1.60583H252.185ZM252.185 57.5084C258.041 57.5084 262.766 55.6349 266.359 51.888C269.953 48.1411 271.749 43.0895 271.749 36.7331C271.749 32.5178 270.918 28.8713 269.254 25.7935C267.657 22.6487 265.361 20.24 262.366 18.5673C259.438 16.8277 256.045 15.9578 252.185 15.9578H239.907V57.5084H252.185Z" fill="url(#paint4_linear_209_23)"/>
</g>
<g filter="url(#filter5_d_209_23)">
<path d="M37.4391 1.60583C42.8293 1.60583 47.5208 2.64293 51.5135 4.71711C55.5728 6.72438 58.7004 9.63492 60.8964 13.4487C63.0924 17.2626 64.1904 21.712 64.1904 26.7971C64.1904 31.8822 63.0924 36.3317 60.8964 40.1455C58.7004 43.9593 55.5728 46.9033 51.5135 48.9775C47.5208 50.9847 42.8293 51.9884 37.4391 51.9884H20.3702V71.8604H4V1.60583H37.4391ZM36.6406 37.6364C40.101 37.6364 42.8293 36.6662 44.8257 34.7258C46.8886 32.7855 47.92 30.176 47.92 26.8975C47.92 23.6189 46.8886 21.0095 44.8257 19.0691C42.8293 17.1287 40.101 16.1586 36.6406 16.1586H20.2704V37.6364H36.6406Z" fill="url(#paint5_linear_209_23)"/>
</g>
<defs>
<filter id="filter0_d_209_23" x="38.8653" y="1.60669" width="80.2946" height="78.2537" filterUnits="userSpaceOnUse" color-interpolation-filters="sRGB">
<feFlood flood-opacity="0" result="BackgroundImageFix"/>
<feColorMatrix in="SourceAlpha" type="matrix" values="0 0 0 0 0 0 0 0 0 0 0 0 0 0 0 0 0 0 127 0" result="hardAlpha"/>
<feOffset dy="4"/>
<feGaussianBlur stdDeviation="2"/>
<feComposite in2="hardAlpha" operator="out"/>
<feColorMatrix type="matrix" values="0 0 0 0 0 0 0 0 0 0 0 0 0 0 0 0 0 0 0.38 0"/>
<feBlend mode="normal" in2="BackgroundImageFix" result="effect1_dropShadow_209_23"/>
<feBlend mode="normal" in="SourceGraphic" in2="effect1_dropShadow_209_23" result="shape"/>
</filter>
<filter id="filter1_d_209_23" x="267.845" y="1.60669" width="87.9543" height="78.2537" filterUnits="userSpaceOnUse" color-interpolation-filters="sRGB">
<feFlood flood-opacity="0" result="BackgroundImageFix"/>
<feColorMatrix in="SourceAlpha" type="matrix" values="0 0 0 0 0 0 0 0 0 0 0 0 0 0 0 0 0 0 127 0" result="hardAlpha"/>
<feOffset dy="4"/>
<feGaussianBlur stdDeviation="2"/>
<feComposite in2="hardAlpha" operator="out"/>
<feColorMatrix type="matrix" values="0 0 0 0 0 0 0 0 0 0 0 0 0 0 0 0 0 0 0.38 0"/>
<feBlend mode="normal" in2="BackgroundImageFix" result="effect1_dropShadow_209_23"/>
<feBlend mode="normal" in="SourceGraphic" in2="effect1_dropShadow_209_23" result="shape"/>
</filter>
<filter id="filter2_d_209_23" x="145.865" y="1.60669" width="80.4243" height="78.2537" filterUnits="userSpaceOnUse" color-interpolation-filters="sRGB">
<feFlood flood-opacity="0" result="BackgroundImageFix"/>
<feColorMatrix in="SourceAlpha" type="matrix" values="0 0 0 0 0 0 0 0 0 0 0 0 0 0 0 0 0 0 127 0" result="hardAlpha"/>
<feOffset dy="4"/>
<feGaussianBlur stdDeviation="2"/>
<feComposite in2="hardAlpha" operator="out"/>
<feColorMatrix type="matrix" values="0 0 0 0 0 0 0 0 0 0 0 0 0 0 0 0 0 0 0.38 0"/>
<feBlend mode="normal" in2="BackgroundImageFix" result="effect1_dropShadow_209_23"/>
<feBlend mode="normal" in="SourceGraphic" in2="effect1_dropShadow_209_23" result="shape"/>
</filter>
<filter id="filter3_d_209_23" x="95.9973" y="0" width="67.6913" height="81.4662" filterUnits="userSpaceOnUse" color-interpolation-filters="sRGB">
<feFlood flood-opacity="0" result="BackgroundImageFix"/>
<feColorMatrix in="SourceAlpha" type="matrix" values="0 0 0 0 0 0 0 0 0 0 0 0 0 0 0 0 0 0 127 0" result="hardAlpha"/>
<feOffset dy="4"/>
<feGaussianBlur stdDeviation="2"/>
<feComposite in2="hardAlpha" operator="out"/>
<feColorMatrix type="matrix" values="0 0 0 0 0 0 0 0 0 0 0 0 0 0 0 0 0 0 0.38 0"/>
<feBlend mode="normal" in2="BackgroundImageFix" result="effect1_dropShadow_209_23"/>
<feBlend mode="normal" in="SourceGraphic" in2="effect1_dropShadow_209_23" result="shape"/>
</filter>
<filter id="filter4_d_209_23" x="219.537" y="1.60583" width="72.5824" height="78.2545" filterUnits="userSpaceOnUse" color-interpolation-filters="sRGB">
<feFlood flood-opacity="0" result="BackgroundImageFix"/>
<feColorMatrix in="SourceAlpha" type="matrix" values="0 0 0 0 0 0 0 0 0 0 0 0 0 0 0 0 0 0 127 0" result="hardAlpha"/>
<feOffset dy="4"/>
<feGaussianBlur stdDeviation="2"/>
<feComposite in2="hardAlpha" operator="out"/>
<feColorMatrix type="matrix" values="0 0 0 0 0 0 0 0 0 0 0 0 0 0 0 0 0 0 0.38 0"/>
<feBlend mode="normal" in2="BackgroundImageFix" result="effect1_dropShadow_209_23"/>
<feBlend mode="normal" in="SourceGraphic" in2="effect1_dropShadow_209_23" result="shape"/>
</filter>
<filter id="filter5_d_209_23" x="0" y="1.60583" width="68.1904" height="78.2545" filterUnits="userSpaceOnUse" color-interpolation-filters="sRGB">
<feFlood flood-opacity="0" result="BackgroundImageFix"/>
<feColorMatrix in="SourceAlpha" type="matrix" values="0 0 0 0 0 0 0 0 0 0 0 0 0 0 0 0 0 0 127 0" result="hardAlpha"/>
<feOffset dy="4"/>
<feGaussianBlur stdDeviation="2"/>
<feComposite in2="hardAlpha" operator="out"/>
<feColorMatrix type="matrix" values="0 0 0 0 0 0 0 0 0 0 0 0 0 0 0 0 0 0 0.38 0"/>
<feBlend mode="normal" in2="BackgroundImageFix" result="effect1_dropShadow_209_23"/>
<feBlend mode="normal" in="SourceGraphic" in2="effect1_dropShadow_209_23" result="shape"/>
</filter>
<linearGradient id="paint0_linear_209_23" x1="79.0126" y1="1.60669" x2="79.0126" y2="71.8604" gradientUnits="userSpaceOnUse">
<stop stop-color="#00CC58"/>
<stop offset="0.62" stop-color="#88CB0C"/>
</linearGradient>
<linearGradient id="paint1_linear_209_23" x1="311.822" y1="1.60669" x2="311.822" y2="71.8604" gradientUnits="userSpaceOnUse">
<stop stop-color="#00CC58"/>
<stop offset="0.62" stop-color="#88CB0C"/>
</linearGradient>
<linearGradient id="paint2_linear_209_23" x1="186.077" y1="1.60669" x2="186.077" y2="71.8604" gradientUnits="userSpaceOnUse">
<stop stop-color="#00CC58"/>
<stop offset="0.62" stop-color="#88CB0C"/>
</linearGradient>
<linearGradient id="paint3_linear_209_23" x1="129.843" y1="0" x2="129.843" y2="73.4662" gradientUnits="userSpaceOnUse">
<stop stop-color="#00CC58"/>
<stop offset="0.62" stop-color="#88CB0C"/>
</linearGradient>
<linearGradient id="paint4_linear_209_23" x1="255.828" y1="1.60583" x2="255.828" y2="71.8604" gradientUnits="userSpaceOnUse">
<stop stop-color="#00CC58"/>
<stop offset="0.62" stop-color="#88CB0C"/>
</linearGradient>
<linearGradient id="paint5_linear_209_23" x1="34.0952" y1="1.60583" x2="34.0952" y2="71.8604" gradientUnits="userSpaceOnUse">
<stop stop-color="#00CC58"/>
<stop offset="0.62" stop-color="#88CB0C"/>
</linearGradient>
</defs>
</svg>
